<svg width="24" height="24" viewBox="0 0 24 24" fill="none" xmlns="http://www.w3.org/2000/svg">
<path d="M11.9586 20C9.14542 20 6.41497 20 3.60178 20C3.10534 20 2.85712 19.7405 2.85712 19.2216C2.85712 15.7622 2.85712 12.3027 2.85712 8.84324C2.85712 8.67027 2.93986 8.41081 2.93986 8.23784C3.51904 7.02703 4.01549 5.72973 4.59467 4.51892C4.67741 4.17297 4.92564 4 5.33934 4C9.80734 4 14.2753 4 18.7433 4C19.0743 4 19.3225 4.17297 19.488 4.51892C19.9845 5.72973 20.4809 7.02703 21.0601 8.23784C21.1428 8.41081 21.1428 8.58378 21.1428 8.75676C21.1428 12.2162 21.1428 15.6757 21.1428 19.2216C21.1428 19.7405 20.8946 20 20.3982 20C17.585 20 14.7718 20 11.9586 20ZM19.819 18.7027C19.819 15.5892 19.819 12.4757 19.819 9.36216C18.0814 9.36216 16.4266 9.36216 14.689 9.36216C14.689 9.44865 14.689 9.53514 14.689 9.62162C14.689 11.0054 14.689 12.4757 14.689 13.8595C14.689 14.0324 14.6063 14.2054 14.5236 14.3784C14.3581 14.6378 14.0271 14.7243 13.7789 14.5514C13.1997 14.2919 12.7033 14.1189 12.1241 13.8595C12.0413 13.8595 11.8759 13.8595 11.7931 13.8595C11.2139 14.1189 10.6348 14.2919 10.1383 14.5514C9.97282 14.6378 9.80734 14.6378 9.7246 14.6378C9.39364 14.5514 9.22816 14.2919 9.22816 13.9459C9.22816 12.4757 9.22816 11.0919 9.22816 9.62162C9.22816 9.53514 9.22816 9.44865 9.22816 9.36216C7.4906 9.36216 5.83579 9.36216 4.09823 9.36216C4.09823 12.4757 4.09823 15.5892 4.09823 18.7027C9.39364 18.7027 14.6063 18.7027 19.819 18.7027ZM4.51193 7.97838C9.55912 7.97838 14.5236 7.97838 19.488 7.97838V7.89189C19.1571 7.11351 18.8261 6.24865 18.4124 5.47027C18.4124 5.38378 18.2469 5.38378 18.2469 5.38378C14.1099 5.38378 9.89008 5.38378 5.75304 5.38378C5.6703 5.38378 5.58756 5.38378 5.50482 5.55676C5.17386 6.24865 4.8429 7.02703 4.51193 7.80541C4.51193 7.89189 4.51193 7.89189 4.51193 7.97838ZM10.552 9.36216C10.552 10.573 10.552 11.7838 10.552 12.9946C10.883 12.8216 11.2967 12.7351 11.6276 12.5622C11.8759 12.3892 12.2068 12.4757 12.455 12.5622C12.786 12.7351 13.117 12.8216 13.5307 12.9946C13.5307 11.7838 13.5307 10.573 13.5307 9.36216C12.455 9.36216 11.5449 9.36216 10.552 9.36216Z" fill="white"/>
</svg>
