<svg width="25" height="26" viewBox="0 0 25 26" fill="none" xmlns="http://www.w3.org/2000/svg">
<path d="M10.745 3.44C11.435 2.85 12.565 2.85 13.265 3.44L14.845 4.8C15.145 5.06 15.705 5.27 16.105 5.27H17.805C18.865 5.27 19.735 6.14 19.735 7.2V8.9C19.735 9.29 19.945 9.86 20.205 10.16L21.565 11.74C22.155 12.43 22.155 13.56 21.565 14.26L20.205 15.84C19.945 16.14 19.735 16.7 19.735 17.1V18.8C19.735 19.86 18.865 20.73 17.805 20.73H16.105C15.715 20.73 15.145 20.94 14.845 21.2L13.265 22.56C12.575 23.15 11.445 23.15 10.745 22.56L9.165 21.2C8.865 20.94 8.305 20.73 7.905 20.73H6.175C5.115 20.73 4.245 19.86 4.245 18.8V17.09C4.245 16.7 4.035 16.14 3.785 15.84L2.435 14.25C1.855 13.56 1.855 12.44 2.435 11.75L3.785 10.16C4.035 9.86 4.245 9.3 4.245 8.91V7.19C4.245 6.13 5.115 5.26 6.175 5.26H7.905C8.295 5.26 8.865 5.05 9.165 4.79L10.745 3.44Z" fill="#1E5BEE"/>
<path d="M15.9172 11.8817V11.9655C15.9172 12.0011 15.9151 12.0367 15.911 12.0723C15.8607 12.9564 15.4752 13.7881 14.832 14.3978C14.1889 15.0074 13.3383 15.3468 12.4521 15.3468C12.3055 15.3573 12.1567 15.3384 12.0185 15.2902C11.8802 15.242 11.7524 15.1645 11.6435 15.064C11.5345 14.9634 11.4486 14.8419 11.39 14.7078C11.3313 14.5717 11.2999 14.4271 11.2999 14.2784C11.2999 14.1296 11.3313 13.9851 11.39 13.8489C11.4486 13.7127 11.5345 13.5912 11.6435 13.4927C11.7524 13.3922 11.8802 13.3168 12.0185 13.2665C12.1567 13.2183 12.3055 13.1994 12.4521 13.2099C12.7978 13.2099 13.1288 13.0758 13.376 12.8349C13.6232 12.594 13.7678 12.2672 13.7803 11.9236C13.772 11.6512 13.6798 11.3873 13.5164 11.1694C13.353 10.9515 13.1267 10.7881 12.869 10.7022C12.6113 10.6163 12.3327 10.6121 12.0708 10.6896C11.809 10.7671 11.5785 10.9243 11.4088 11.138C11.2224 11.3726 11.1218 11.6638 11.1218 11.9634V12.4997C11.1134 12.2818 11.1113 12.0891 11.1113 11.932C11.1113 11.5025 11.2119 11.0793 11.4046 10.6959C11.5974 10.3125 11.876 9.97943 12.2196 9.72384C12.5632 9.46825 12.9633 9.29437 13.3844 9.21895C13.8076 9.14353 14.2412 9.16867 14.6519 9.29018C15.0206 9.59395 15.3244 9.97105 15.5401 10.3984C15.7559 10.8258 15.8816 11.2909 15.9089 11.7686C15.9151 11.8063 15.9172 11.844 15.9172 11.8817Z" fill="white"/>
<path d="M14.6579 9.29229C14.2473 9.17078 13.8136 9.14564 13.3904 9.22106C12.9672 9.29648 12.5692 9.46827 12.2256 9.72595C11.882 9.98364 11.6034 10.3146 11.4107 10.698C11.2179 11.0814 11.1174 11.5046 11.1174 11.9341C11.1174 12.0912 11.1174 12.2839 11.1278 12.5018V16.9621C11.1069 17.2302 10.9854 17.4816 10.7884 17.666C10.5915 17.8503 10.3296 17.9509 10.0615 17.9509C9.79333 17.9509 9.53145 17.8482 9.33452 17.666C9.13759 17.4816 9.01608 17.2323 8.99513 16.9621V11.9655C8.99304 11.3077 9.17949 10.6645 9.53145 10.1093C9.88341 9.55416 10.3841 9.11002 10.9791 8.8293C11.5741 8.54857 12.2361 8.44382 12.8876 8.52343C13.5392 8.60513 14.1551 8.87119 14.6621 9.2881V9.29229H14.6579Z" fill="white"/>
</svg>
