<svg width="24" height="24" viewBox="0 0 24 24" fill="none" xmlns="http://www.w3.org/2000/svg">
<path d="M11.9951 16.6766V14.1396" stroke="white" stroke-width="1.5" stroke-linecap="round" stroke-linejoin="round"/>
<path fill-rule="evenodd" clip-rule="evenodd" d="M18.1899 5.33008C19.8799 5.33008 21.2399 6.70008 21.2399 8.39008V11.8301C18.7799 13.2701 15.5299 14.1401 11.9899 14.1401C8.44988 14.1401 5.20988 13.2701 2.74988 11.8301V8.38008C2.74988 6.69008 4.11988 5.33008 5.80988 5.33008H18.1899Z" stroke="white" stroke-width="1.5" stroke-linecap="round" stroke-linejoin="round"/>
<path d="M15.4951 5.32576V4.95976C15.4951 3.73976 14.5051 2.74976 13.2851 2.74976H10.7051C9.48506 2.74976 8.49506 3.73976 8.49506 4.95976V5.32576" stroke="white" stroke-width="1.5" stroke-linecap="round" stroke-linejoin="round"/>
<path d="M2.77435 15.4829L2.96335 17.9919C3.09135 19.6829 4.50035 20.9899 6.19535 20.9899H17.7944C19.4894 20.9899 20.8984 19.6829 21.0264 17.9919L21.2154 15.4829" stroke="white" stroke-width="1.5" stroke-linecap="round" stroke-linejoin="round"/>
</svg>
