<svg width="57" height="32" viewBox="0 0 57 32" fill="none" xmlns="http://www.w3.org/2000/svg">
<path d="M19.1688 2.6902C17.7788 2.27888 16.3109 2.19379 14.8784 2.44908C13.4458 2.70438 12.0984 3.2859 10.9354 4.15817C9.77235 5.03044 8.82917 6.15093 8.17674 7.4487C7.52431 8.74647 7.18391 10.179 7.18391 11.6328C7.18391 12.1646 7.18391 12.8171 7.21937 13.5546V28.6527C7.14845 29.5605 6.73713 30.4115 6.07051 31.0355C5.4039 31.6596 4.51744 32 3.60971 32C2.70198 32 1.81552 31.6525 1.1489 31.0355C0.482288 30.4115 0.0709756 29.5676 5.91107e-05 28.6527V11.7391C-0.00703254 9.51237 0.624123 7.33523 1.81552 5.45594C3.00692 3.57666 4.70182 2.07323 6.71585 1.12294C8.72988 0.172664 10.9709 -0.18192 13.1764 0.0875632C15.3819 0.364138 17.4668 1.26478 19.183 2.67602V2.6902H19.1688Z" fill="#1E5BEE"/>
<path d="M23.4451 11.4555V11.7391C23.4451 11.8597 23.438 11.9802 23.4238 12.1008C23.2536 15.0935 21.9487 17.9089 19.7716 19.9725C17.5945 22.0362 14.7152 23.1851 11.7155 23.1851C11.2191 23.2205 10.7156 23.1567 10.2475 22.9936C9.77946 22.8305 9.34687 22.5681 8.9781 22.2277C8.60933 21.8873 8.31858 21.476 8.12001 21.0221C7.92145 20.5611 7.81507 20.0718 7.81507 19.5683C7.81507 19.0648 7.92145 18.5755 8.12001 18.1145C8.31858 17.6536 8.60933 17.2422 8.9781 16.9089C9.34687 16.5685 9.77946 16.3132 10.2475 16.143C10.7156 15.9799 11.2191 15.9161 11.7155 15.9516C12.8856 15.9516 14.0061 15.4977 14.8429 14.6822C15.6797 13.8666 16.169 12.7603 16.2116 11.5973C16.1832 10.6754 15.8712 9.78183 15.318 9.0443C14.7649 8.30677 13.999 7.75362 13.1267 7.46286C12.2544 7.1721 11.3113 7.15792 10.4248 7.42031C9.53834 7.6827 8.75826 8.21458 8.18384 8.93792C7.55268 9.73219 7.21228 10.7179 7.21228 11.732V13.5475C7.18391 12.81 7.17682 12.1575 7.17682 11.6257C7.17682 10.1719 7.51722 8.73936 8.16965 7.44159C8.82208 6.14381 9.76527 5.01624 10.9283 4.15106C12.0913 3.28588 13.4458 2.69727 14.8713 2.44197C16.3038 2.18667 17.7717 2.27177 19.1617 2.68309C20.4098 3.71138 21.4381 4.98787 22.1686 6.43457C22.899 7.88127 23.3245 9.45561 23.4167 11.0725C23.438 11.2002 23.4451 11.3278 23.4451 11.4555Z" fill="#1E5BEE"/>
<path d="M19.1689 2.69012C10.6305 1.5129 8.2548 8.7322 8.19097 8.94495C7.55981 9.73922 7.21942 10.725 7.21942 11.7391V13.5545C7.19105 12.817 7.18396 12.1646 7.18396 11.6327C7.18396 10.1789 7.52436 8.74639 8.17679 7.44862C8.82922 6.15084 9.77241 5.02327 10.9354 4.15809C12.0985 3.2929 13.453 2.7043 14.8784 2.449C16.3109 2.1937 17.7789 2.27171 19.1689 2.69012Z" fill="#1E5BEE"/>
<path d="M28.4446 22.1424C27.8631 22.1424 27.2887 21.9722 26.7993 21.646C26.31 21.3198 25.9342 20.8589 25.7072 20.3199C25.4803 19.7809 25.4236 19.1852 25.537 18.6108C25.6505 18.0364 25.9342 17.5116 26.3455 17.1003C26.7568 16.689 27.2887 16.4053 27.856 16.2918C28.4304 16.1784 29.0261 16.2351 29.5651 16.462C30.1041 16.689 30.565 17.0648 30.8912 17.5541C31.2174 18.0435 31.3876 18.6108 31.3876 19.1994C31.3876 19.9866 31.0756 20.7312 30.5225 21.2914C29.9764 21.8233 29.2247 22.1354 28.4446 22.1424ZM28.4446 13.3984C27.3028 13.3984 26.1824 13.7388 25.2321 14.37C24.2818 15.0082 23.5372 15.9089 23.1046 16.9655C22.672 18.0222 22.5514 19.1852 22.7784 20.3057C22.9982 21.4262 23.5514 22.4616 24.3598 23.27C25.1683 24.0785 26.1966 24.6316 27.3241 24.8515C28.4446 25.0713 29.6076 24.9578 30.6643 24.5252C31.721 24.0856 32.6216 23.348 33.2598 22.3977C33.8981 21.4475 34.2314 20.327 34.2314 19.1852C34.2314 17.6534 33.6215 16.1784 32.5365 15.1004C31.4515 14.0083 29.9764 13.3984 28.4446 13.3984Z" fill="#1E5BEE"/>
<path d="M50.8897 22.1424C50.3082 22.1424 49.7337 21.9652 49.2515 21.6389C48.7693 21.3127 48.3863 20.8518 48.1665 20.3128C47.9466 19.7738 47.8899 19.1781 48.0034 18.6037C48.1168 18.0293 48.4005 17.5045 48.8118 17.0932C49.2231 16.6819 49.755 16.3982 50.3223 16.2847C50.8968 16.1713 51.4925 16.228 52.0314 16.4549C52.5704 16.6819 53.0314 17.0577 53.3576 17.5471C53.6838 18.0364 53.854 18.6037 53.854 19.1852C53.854 19.5753 53.776 19.9582 53.627 20.3199C53.4781 20.6816 53.2583 21.0078 52.9817 21.2773C52.7051 21.5538 52.3789 21.7666 52.0172 21.9155C51.6627 22.0644 51.2797 22.1424 50.8897 22.1424ZM50.8897 13.3984C49.7479 13.3984 48.6274 13.7388 47.6772 14.37C46.7269 15.0082 45.9823 15.9089 45.5497 16.9655C45.1171 18.0222 44.9965 19.1852 45.2234 20.3057C45.4433 21.4262 45.9964 22.4616 46.8049 23.27C47.6133 24.0785 48.6416 24.6316 49.7692 24.8515C50.8968 25.0713 52.0527 24.9578 53.1094 24.5252C54.166 24.0856 55.0667 23.348 55.7049 22.3977C56.3432 21.4475 56.6765 20.327 56.6765 19.1852C56.6765 17.6534 56.0666 16.1784 54.9816 15.1004C53.8965 14.0083 52.4215 13.3984 50.8897 13.3984Z" fill="#1E5BEE"/>
<path d="M40.4864 13.4553C39.1744 13.2639 37.8341 13.5333 36.6994 14.2212V8.72521C36.6994 8.54082 36.664 8.35644 36.5931 8.18624C36.5221 8.01604 36.4158 7.86002 36.2881 7.72528C36.1534 7.59054 35.9974 7.49126 35.8272 7.42034C35.657 7.34942 35.4726 7.31396 35.2882 7.31396C34.9123 7.31396 34.5507 7.46289 34.2883 7.72528C34.0259 7.98767 33.877 8.34935 33.877 8.72521V23.5539C33.877 23.7382 33.9124 23.9226 33.9833 24.0928C34.0542 24.263 34.1606 24.419 34.2883 24.5538C34.423 24.6885 34.579 24.7878 34.7492 24.8587C34.9194 24.9296 35.1038 24.9651 35.2882 24.9651C35.4726 24.9651 35.657 24.9296 35.8272 24.8587C35.9974 24.7878 36.1534 24.6814 36.2881 24.5538C36.4229 24.419 36.5221 24.263 36.5931 24.0928C36.664 23.9226 36.6994 23.7382 36.6994 23.5539V19.2847C36.6853 18.5188 36.9689 17.7812 37.4795 17.2139C37.9901 16.6466 38.6993 16.292 39.4581 16.2282C39.8623 16.1998 40.2665 16.2565 40.6495 16.3913C41.0324 16.526 41.3799 16.7388 41.6778 17.0153C41.9756 17.2919 42.2096 17.6252 42.3728 18.0011C42.5359 18.3699 42.621 18.7741 42.621 19.1783V23.5468C42.621 23.7311 42.6564 23.9155 42.7273 24.0928C42.7983 24.263 42.9046 24.419 43.0323 24.5538C43.167 24.6885 43.323 24.7878 43.4932 24.8587C43.6634 24.9296 43.8478 24.9651 44.0393 24.9651C44.2237 24.9651 44.4081 24.9296 44.5783 24.8587C44.7485 24.7878 44.9045 24.6814 45.0392 24.5538C45.174 24.419 45.2732 24.2701 45.3442 24.0928C45.4151 23.9155 45.4505 23.7382 45.4505 23.5539V19.306C45.4647 17.8947 44.9683 16.5331 44.0606 15.4623C43.1458 14.3843 41.8763 13.6752 40.4864 13.4553Z" fill="#1E5BEE"/>
</svg>
